<mxfile host="app.diagrams.net" agent="Mozilla/5.0 (Macintosh; Intel Mac OS X 10_15_7) AppleWebKit/537.36 (KHTML, like Gecko) Chrome/131.0.0.0 Safari/537.36" version="25.0.3">
  <diagram name="第 1 页" id="weAJyAuKUi2FDlKsi1JT">
    <mxGraphModel dx="1082" dy="696" grid="1" gridSize="10" guides="1" tooltips="1" connect="1" arrows="1" fold="1" page="1" pageScale="1" pageWidth="827" pageHeight="1169" math="0" shadow="0">
      <root>
        <mxCell id="0" />
        <mxCell id="1" parent="0" />
        <mxCell id="4DrlTJSZ5cez98okmt2o-3" value="" style="edgeStyle=orthogonalEdgeStyle;rounded=0;orthogonalLoop=1;jettySize=auto;html=1;" edge="1" parent="1" source="4DrlTJSZ5cez98okmt2o-1" target="4DrlTJSZ5cez98okmt2o-2">
          <mxGeometry relative="1" as="geometry" />
        </mxCell>
        <mxCell id="4DrlTJSZ5cez98okmt2o-1" value="App启动" style="ellipse;whiteSpace=wrap;html=1;" vertex="1" parent="1">
          <mxGeometry x="240" y="40" width="120" height="80" as="geometry" />
        </mxCell>
        <mxCell id="4DrlTJSZ5cez98okmt2o-5" value="" style="edgeStyle=orthogonalEdgeStyle;rounded=0;orthogonalLoop=1;jettySize=auto;html=1;" edge="1" parent="1" source="4DrlTJSZ5cez98okmt2o-2" target="4DrlTJSZ5cez98okmt2o-4">
          <mxGeometry relative="1" as="geometry" />
        </mxCell>
        <mxCell id="4DrlTJSZ5cez98okmt2o-2" value="pre-main" style="rhombus;whiteSpace=wrap;html=1;" vertex="1" parent="1">
          <mxGeometry x="260" y="160" width="80" height="80" as="geometry" />
        </mxCell>
        <mxCell id="4DrlTJSZ5cez98okmt2o-7" value="" style="edgeStyle=orthogonalEdgeStyle;rounded=0;orthogonalLoop=1;jettySize=auto;html=1;" edge="1" parent="1" source="4DrlTJSZ5cez98okmt2o-4" target="4DrlTJSZ5cez98okmt2o-6">
          <mxGeometry relative="1" as="geometry" />
        </mxCell>
        <mxCell id="4DrlTJSZ5cez98okmt2o-4" value="&lt;div style=&quot;text-align: justify;&quot;&gt;&lt;span style=&quot;background-color: initial; font-size: 10px;&quot;&gt;dyld动态链接器启动:&lt;/span&gt;&lt;/div&gt;&lt;div style=&quot;text-align: justify;&quot;&gt;&lt;span style=&quot;background-color: initial; font-size: 10px;&quot;&gt;1.加载Mach-O文件&lt;/span&gt;&lt;/div&gt;&lt;div&gt;&lt;div style=&quot;text-align: justify;&quot;&gt;&lt;span style=&quot;background-color: initial; font-size: 10px;&quot;&gt;2.加载动态库&lt;/span&gt;&lt;/div&gt;&lt;span style=&quot;font-size: 10px; background-color: initial;&quot;&gt;3.调用动态库的初始函数&lt;/span&gt;&lt;/div&gt;" style="whiteSpace=wrap;html=1;align=center;" vertex="1" parent="1">
          <mxGeometry x="200" y="280" width="200" height="80" as="geometry" />
        </mxCell>
        <mxCell id="4DrlTJSZ5cez98okmt2o-9" value="" style="edgeStyle=orthogonalEdgeStyle;rounded=0;orthogonalLoop=1;jettySize=auto;html=1;" edge="1" parent="1" source="4DrlTJSZ5cez98okmt2o-6" target="4DrlTJSZ5cez98okmt2o-8">
          <mxGeometry relative="1" as="geometry" />
        </mxCell>
        <mxCell id="4DrlTJSZ5cez98okmt2o-6" value="&lt;div style=&quot;text-align: justify;&quot;&gt;&lt;span style=&quot;font-size: 10px; background-color: initial;&quot;&gt;Runtime初始化:&lt;/span&gt;&lt;/div&gt;&lt;div style=&quot;text-align: justify;&quot;&gt;&lt;span style=&quot;font-size: 10px;&quot;&gt;1.注册类和方法&lt;/span&gt;&lt;/div&gt;&lt;div style=&quot;text-align: justify;&quot;&gt;&lt;span style=&quot;font-size: 10px;&quot;&gt;2.调用每个类和分类的+load方法&lt;/span&gt;&lt;/div&gt;&lt;div style=&quot;text-align: justify;&quot;&gt;&lt;span style=&quot;font-size: 10px;&quot;&gt;3.完成协议、类别方法、方法交换等注册&lt;/span&gt;&lt;/div&gt;&lt;div style=&quot;text-align: justify;&quot;&gt;&lt;span style=&quot;font-size: 10px;&quot;&gt;4.完成方法的动态绑定&lt;/span&gt;&lt;/div&gt;" style="whiteSpace=wrap;html=1;" vertex="1" parent="1">
          <mxGeometry x="160" y="400" width="280" height="80" as="geometry" />
        </mxCell>
        <mxCell id="4DrlTJSZ5cez98okmt2o-8" value="&lt;div style=&quot;text-align: justify;&quot;&gt;&lt;span style=&quot;font-size: 10px; background-color: initial;&quot;&gt;静态初始化阶段:&lt;/span&gt;&lt;/div&gt;&lt;div style=&quot;text-align: justify;&quot;&gt;&lt;font style=&quot;font-size: 10px;&quot;&gt;1.初始化全局变量和静态对象&lt;/font&gt;&lt;/div&gt;&lt;div style=&quot;text-align: justify;&quot;&gt;&lt;font style=&quot;font-size: 10px;&quot;&gt;2.调用C++静态构造函数&lt;/font&gt;&lt;/div&gt;" style="whiteSpace=wrap;html=1;" vertex="1" parent="1">
          <mxGeometry x="200" y="520" width="200" height="80" as="geometry" />
        </mxCell>
        <mxCell id="4DrlTJSZ5cez98okmt2o-13" value="" style="edgeStyle=orthogonalEdgeStyle;rounded=0;orthogonalLoop=1;jettySize=auto;html=1;exitX=0.5;exitY=1;exitDx=0;exitDy=0;" edge="1" parent="1" source="4DrlTJSZ5cez98okmt2o-8" target="4DrlTJSZ5cez98okmt2o-12">
          <mxGeometry relative="1" as="geometry">
            <mxPoint x="160" y="670" as="sourcePoint" />
          </mxGeometry>
        </mxCell>
        <mxCell id="4DrlTJSZ5cez98okmt2o-15" value="" style="edgeStyle=orthogonalEdgeStyle;rounded=0;orthogonalLoop=1;jettySize=auto;html=1;" edge="1" parent="1" source="4DrlTJSZ5cez98okmt2o-12" target="4DrlTJSZ5cez98okmt2o-14">
          <mxGeometry relative="1" as="geometry" />
        </mxCell>
        <mxCell id="4DrlTJSZ5cez98okmt2o-12" value="main函数" style="rhombus;whiteSpace=wrap;html=1;" vertex="1" parent="1">
          <mxGeometry x="260" y="640" width="80" height="80" as="geometry" />
        </mxCell>
        <mxCell id="4DrlTJSZ5cez98okmt2o-17" value="" style="edgeStyle=orthogonalEdgeStyle;rounded=0;orthogonalLoop=1;jettySize=auto;html=1;" edge="1" parent="1" source="4DrlTJSZ5cez98okmt2o-14" target="4DrlTJSZ5cez98okmt2o-16">
          <mxGeometry relative="1" as="geometry" />
        </mxCell>
        <mxCell id="4DrlTJSZ5cez98okmt2o-14" value="&lt;font style=&quot;font-size: 10px;&quot;&gt;UIApplicationMain启动&lt;/font&gt;" style="whiteSpace=wrap;html=1;" vertex="1" parent="1">
          <mxGeometry x="200" y="760" width="200" height="40" as="geometry" />
        </mxCell>
        <mxCell id="4DrlTJSZ5cez98okmt2o-30" value="" style="edgeStyle=orthogonalEdgeStyle;rounded=0;orthogonalLoop=1;jettySize=auto;html=1;" edge="1" parent="1" source="4DrlTJSZ5cez98okmt2o-16" target="4DrlTJSZ5cez98okmt2o-29">
          <mxGeometry relative="1" as="geometry" />
        </mxCell>
        <mxCell id="4DrlTJSZ5cez98okmt2o-16" value="&lt;div style=&quot;text-align: justify;&quot;&gt;&lt;span style=&quot;font-size: 10px; background-color: initial;&quot;&gt;主线程与RunLoop:&lt;/span&gt;&lt;/div&gt;&lt;div style=&quot;text-align: justify;&quot;&gt;&lt;font style=&quot;font-size: 10px;&quot;&gt;1.进入事件循环，等待用户输入&lt;/font&gt;&lt;/div&gt;&lt;div style=&quot;text-align: justify;&quot;&gt;&lt;font style=&quot;font-size: 10px;&quot;&gt;2.通过事件队列处理触屏、手势等&lt;/font&gt;&lt;/div&gt;" style="whiteSpace=wrap;html=1;" vertex="1" parent="1">
          <mxGeometry x="200" y="840" width="200" height="80" as="geometry" />
        </mxCell>
        <mxCell id="4DrlTJSZ5cez98okmt2o-26" value="App启动优化" style="ellipse;whiteSpace=wrap;html=1;" vertex="1" parent="1">
          <mxGeometry x="505" y="40" width="120" height="80" as="geometry" />
        </mxCell>
        <mxCell id="4DrlTJSZ5cez98okmt2o-29" value="&lt;div style=&quot;text-align: justify;&quot;&gt;&lt;span style=&quot;background-color: initial;&quot;&gt;App退出:&lt;/span&gt;&lt;/div&gt;&lt;div style=&quot;text-align: justify;&quot;&gt;1.系统调用applicationWillTerminate等方法&lt;/div&gt;&lt;div style=&quot;text-align: justify;&quot;&gt;2.主线程退出RunLoop，释放资源&lt;/div&gt;" style="whiteSpace=wrap;html=1;" vertex="1" parent="1">
          <mxGeometry x="160" y="960" width="280" height="80" as="geometry" />
        </mxCell>
        <mxCell id="4DrlTJSZ5cez98okmt2o-32" value="1.减少动态库&lt;div&gt;2.动态改静态&lt;/div&gt;" style="rounded=0;whiteSpace=wrap;html=1;" vertex="1" parent="1">
          <mxGeometry x="480" y="280" width="160" height="80" as="geometry" />
        </mxCell>
        <mxCell id="4DrlTJSZ5cez98okmt2o-33" value="1.减少项目无用代码&lt;div style=&quot;text-align: justify;&quot;&gt;2.抽象重复代码&lt;/div&gt;" style="rounded=0;whiteSpace=wrap;html=1;" vertex="1" parent="1">
          <mxGeometry x="480" y="400" width="160" height="80" as="geometry" />
        </mxCell>
      </root>
    </mxGraphModel>
  </diagram>
</mxfile>
